<?xml version="1.0" standalone="no"?>
<!DOCTYPE svg PUBLIC "-//W3C//DTD SVG 20010904//EN"
 "http://www.w3.org/TR/2001/REC-SVG-20010904/DTD/svg10.dtd">
<svg version="1.0" xmlns="http://www.w3.org/2000/svg"
 width="512.000000pt" height="512.000000pt" viewBox="0 0 512.000000 512.000000"
 preserveAspectRatio="xMidYMid meet">
<metadata>
Created by potrace 1.16, written by Peter Selinger 2001-2019
</metadata>
<g transform="translate(0.000000,512.000000) scale(0.100000,-0.100000)"
fill="#000000" stroke="none">
<path d="M458 5091 l-33 -29 -3 -340 -3 -339 -90 -5 c-117 -7 -201 -46 -259
-119 -76 -96 -71 26 -68 -1609 l3 -1465 23 -47 c30 -60 90 -120 150 -150 l47
-23 848 -3 848 -2 -3 -131 -3 -131 -40 -16 c-162 -63 -309 -228 -360 -405
l-16 -57 -110 0 -109 0 0 -110 0 -110 1280 0 1280 0 0 110 0 110 -109 0 -110
0 -16 58 c-51 176 -198 341 -360 404 l-40 16 -3 131 -3 131 848 2 848 3 47 23
c60 30 120 90 150 150 l23 47 3 1465 c3 1635 8 1513 -68 1609 -28 35 -59 59
-107 83 l-68 33 -400 3 -400 3 -25 41 c-14 22 -55 68 -92 103 -242 229 -631
230 -875 2 -34 -32 -75 -78 -90 -103 l-28 -44 -202 0 -203 0 0 341 0 341 -29
29 -29 29 -1006 0 -1006 0 -32 -29z m1882 -930 l0 -739 -180 -4 -180 -3 -27
-28 c-27 -26 -28 -33 -33 -146 l-5 -118 -165 140 c-90 76 -175 143 -188 148
-13 5 -226 9 -473 9 l-449 0 0 740 0 740 850 0 850 0 0 -739z m1362 266 c165
-81 247 -229 235 -427 -12 -194 -76 -356 -187 -470 -103 -106 -213 -135 -337
-89 -78 30 -174 128 -226 232 -58 117 -79 211 -81 352 -1 105 2 128 23 178 44
110 128 193 246 242 52 22 72 25 156 23 87 -3 102 -6 171 -41z m-3280 -718 l3
-451 33 -29 32 -29 493 0 492 0 230 -196 c127 -108 244 -204 260 -215 36 -23
76 -24 116 -3 50 25 59 63 59 249 l0 165 181 0 181 0 29 29 29 29 0 451 0 451
159 0 159 0 4 -162 c5 -138 9 -176 32 -251 42 -141 112 -264 210 -373 25 -29
46 -56 46 -62 0 -16 -63 -73 -97 -87 -18 -8 -65 -17 -105 -20 -156 -14 -262
-62 -364 -163 -71 -72 -124 -167 -143 -260 -7 -33 -11 -188 -11 -402 l0 -350
-1115 0 -1115 0 0 1020 c0 1102 -2 1061 52 1087 37 18 50 21 100 22 l47 1 3
-451z m4429 428 c14 -9 31 -29 37 -43 9 -18 12 -295 12 -1044 l0 -1020 -155 0
-155 0 0 350 c0 214 -4 369 -11 402 -19 93 -72 188 -143 260 -102 102 -208
149 -365 163 -41 4 -91 15 -112 25 -36 19 -89 73 -89 91 0 5 26 38 58 73 107
118 183 269 216 428 10 47 16 128 16 208 l0 131 333 -3 c298 -3 335 -5 358
-21z m-1162 -963 c26 -41 111 -119 157 -142 63 -31 104 -42 201 -51 145 -13
237 -73 291 -189 l27 -57 3 -352 3 -353 -105 0 -106 0 0 265 0 265 -110 0
-110 0 0 -265 0 -265 -420 0 -420 0 0 265 0 265 -110 0 -110 0 0 -265 0 -265
-106 0 -105 0 3 353 3 352 27 57 c55 117 146 176 294 190 52 4 119 17 149 29
72 27 163 96 197 151 l28 43 150 -1 151 -1 18 -29z m1211 -1645 l0 -281 -34
-34 -34 -34 -2272 0 -2272 0 -34 34 -34 34 0 281 0 281 2340 0 2340 0 0 -281z
m-1920 -674 l0 -105 -50 0 -50 0 0 -109 0 -110 58 -6 c220 -24 354 -101 425
-245 l28 -55 -416 -3 c-228 -1 -602 -1 -830 0 l-416 3 28 55 c54 109 174 198
308 230 28 6 150 14 273 17 l222 6 0 108 0 109 -210 0 -210 0 0 105 0 105 420
0 420 0 0 -105z"/>
<path d="M960 4370 l0 -110 535 0 535 0 0 110 0 110 -535 0 -535 0 0 -110z"/>
<path d="M960 3950 l0 -110 535 0 535 0 0 110 0 110 -535 0 -535 0 0 -110z"/>
<path d="M420 1490 l0 -110 110 0 110 0 0 110 0 110 -110 0 -110 0 0 -110z"/>
<path d="M740 1490 l0 -110 110 0 110 0 0 110 0 110 -110 0 -110 0 0 -110z"/>
<path d="M1060 1490 l0 -110 110 0 110 0 0 110 0 110 -110 0 -110 0 0 -110z"/>
</g>
</svg>
